# xmcd
#
# Track frame offsets:
#	150
#	13820
#	32520
#	48043
#	65802
#	76234
#	98121
#	116366
#	130271
#	146393
#	160991
#
# Disc length: 2318 seconds
#
# Revision: 2
# Processed by: cddbd v1.5.2PL0 Copyright (c) Steve Scherf et al.
# Submitted via: audiograbber 1.83.01
#
DISCID=87090c0b
DTITLE=Guy Clark - Workbench Songs
DYEAR=2006
DGENRE=Country
TTITLE0=Walkin' Man
TTITLE1=Magdalene
TTITLE2=Tornado Time In Texas
TTITLE3=Funny Bone
TTITLE4=Exposé
TTITLE5=Out In The Parkin' Lot
TTITLE6=No Lonesome Tune
TTITLE7=Cinco De Mayo In Memphis
TTITLE8=Analog Girl
TTITLE9=Worry B Gone
TTITLE10=Diamond Joe (duet with Verlon Thomson)
EXTD=
EXTT0=
EXTT1=
EXTT2=
EXTT3=
EXTT4=
EXTT5=
EXTT6=
EXTT7=
EXTT8=
EXTT9=
EXTT10=
PLAYORDER=
